<?xml version="1.0" encoding="UTF-8"?>
<svg version="1.1" xmlns="http://www.w3.org/2000/svg" width="53" height="51">
<path d="M0 0 C0.8037355 -0.00428513 1.60747101 -0.00857025 2.43556213 -0.01298523 C4.13256897 -0.01871867 5.82960037 -0.01923605 7.52661133 -0.01489258 C10.11647669 -0.01173391 12.70519776 -0.03519844 15.29492188 -0.06054688 C16.94661315 -0.06282018 18.59830748 -0.06352322 20.25 -0.0625 C21.40646278 -0.07631462 21.40646278 -0.07631462 22.58628845 -0.09040833 C27.13261279 -0.051482 30.19562549 0.30287364 33.69140625 3.30078125 C37.80767178 9.5604543 37.17883077 16.26874793 37.13745117 23.46801758 C37.12894136 25.72895405 37.15773712 27.9873594 37.18945312 30.24804688 C37.19106562 31.70182217 37.19048669 33.15560188 37.1875 34.609375 C37.19027954 36.57088501 37.19027954 36.57088501 37.19311523 38.57202148 C36.57240252 43.18523085 35.31349518 45.47763132 32.69140625 49.30078125 C28.81993874 51.88175959 25.53830706 51.64254428 21.04296875 51.671875 C19.76865494 51.68541771 19.76865494 51.68541771 18.46859741 51.69923401 C16.67148361 51.71373867 14.87431697 51.72262379 13.07714844 51.72631836 C10.33307488 51.73820902 7.59125475 51.78738437 4.84765625 51.83789062 C3.10027138 51.84735582 1.35287271 51.85459039 -0.39453125 51.859375 C-1.62132095 51.88867348 -1.62132095 51.88867348 -2.87289429 51.91856384 C-7.24688631 51.88407278 -8.80128826 51.71962054 -12.30322266 48.82836914 C-12.96499512 47.99426514 -13.62676758 47.16016113 -14.30859375 46.30078125 C-14.63859375 45.97078125 -14.96859375 45.64078125 -15.30859375 45.30078125 C-15.43453618 42.54760339 -15.49727291 39.82090702 -15.51171875 37.06640625 C-15.51741882 36.23622986 -15.5231189 35.40605347 -15.5289917 34.55072021 C-15.53845843 32.78870931 -15.54498229 31.02668057 -15.54882812 29.26464844 C-15.55850353 26.57585366 -15.58949784 23.88783293 -15.62109375 21.19921875 C-15.62762663 19.48828579 -15.63287598 17.77734736 -15.63671875 16.06640625 C-15.64906555 15.26414612 -15.66141235 14.46188599 -15.6741333 13.63531494 C-15.65598598 9.05670996 -15.35945674 5.96491765 -12.30859375 2.30078125 C-8.71898038 -0.48296838 -4.34584455 -0.00512398 0 0 Z " fill="#6257E3" transform="translate(16.30859375,-0.30078125)"/>
<path d="M0 0 C0.99 0 1.98 0 3 0 C4.98 5.94 6.96 11.88 9 18 C9.66 15.69 10.32 13.38 11 11 C13.64 11 16.28 11 19 11 C19 11.66 19 12.32 19 13 C17.02 13 15.04 13 13 13 C12.01 16.63 11.02 20.26 10 24 C9.01 24 8.02 24 7 24 C5.02 18.06 3.04 12.12 1 6 C0.34 8.31 -0.32 10.62 -1 13 C-3.64 13 -6.28 13 -9 13 C-9 12.34 -9 11.68 -9 11 C-7.02 11 -5.04 11 -3 11 C-2.01 7.37 -1.02 3.74 0 0 Z " fill="#F3F2FD" transform="translate(21,13)"/>
</svg>
